Coordinates
version=1
nRows=11
nColumns=36
inDegrees=yes

Units are S.I. units (second, meters, Newtons, ...)
If the header above contains a line with 'inDegrees', this indicates whether rotational values are in degrees (yes) or radians (no).

endheader
time	pelvis_tilt	pelvis_list	pelvis_rotation	pelvis_tx	pelvis_ty	pelvis_tz	hip_flexion_r	hip_adduction_r	hip_rotation_r	knee_angle_r	knee_angle_r_beta	ankle_angle_r	subtalar_angle_r	mtp_angle_r	hip_flexion_l	hip_adduction_l	hip_rotation_l	knee_angle_l	knee_angle_l_beta	ankle_angle_l	subtalar_angle_l	mtp_angle_l	lumbar_extension	lumbar_bending	lumbar_rotation	arm_flex_r	arm_add_r	arm_rot_r	elbow_flex_r	pro_sup_r	arm_flex_l	arm_add_l	arm_rot_l	elbow_flex_l	pro_sup_l
      5.56666670	    -13.82294975	     -0.02435754	     -4.16620413	     -0.11362424	      0.68752777	     -0.05846944	     84.56947383	     -4.62704596	      1.67232957	     90.48416257	      1.57924656	     32.89804037	      1.47145392	     -7.49999987	     85.51765641	    -13.20999520	     -2.00840605	     95.12553188	      1.66025373	     30.82273528	     10.57674792	     -7.49999987	    -15.84280554	     -0.13827908	     10.10150913	     14.34181999	    -18.09483410	      9.67135652	     79.89024227	     91.55982098	     22.93982780	    -10.05537585	     28.30226601	     77.31033106	     85.21924051
      5.58333330	    -14.72653217	      0.14323846	     -4.02796951	     -0.11072097	      0.68100651	     -0.05869956	     85.64938049	     -4.76002870	      1.70483680	     90.68928977	      1.58282670	     33.39210998	      1.75886540	     -7.49999987	     86.55074467	    -13.05684190	     -2.13490533	     95.24627961	      1.66236118	     30.81342084	     10.55262077	     -7.49999987	    -15.45964146	     -0.51023859	     10.20231024	     14.51497977	    -18.55436591	      9.80277053	     80.61639982	     92.65747312	     23.62239075	    -10.63608233	     29.07032396	     79.21164677	     86.11193982
      5.60000000	    -15.53757546	      0.22226003	     -3.80212847	     -0.11133241	      0.68654961	     -0.05891371	     86.35230498	     -4.93587034	      1.65094117	     90.59156725	      1.58112112	     33.79638294	      1.86794973	     -7.49999987	     87.23483661	    -12.86735583	     -2.19507958	     95.02655323	      1.65852623	     30.96675218	     10.64552249	     -7.49999987	    -15.68642519	     -0.70363146	     10.34748154	     15.87428461	    -19.15178429	      8.81761007	     81.33386974	     92.41909113	     24.58057005	    -11.03207294	     28.97345366	     81.08111327	     86.44305139
      5.61666670	    -16.58156472	      0.26128866	     -3.77479185	     -0.10769926	      0.69305633	     -0.05877098	     86.75413476	     -4.90742798	      1.49022966	     89.91279921	      1.56927439	     34.14424338	      1.94793939	     -7.49999987	     87.66695786	    -12.79649499	     -2.23552528	     94.40786368	      1.64772806	     31.21541324	     10.58106767	     -7.49999987	    -15.81400409	     -0.72590857	     10.64382647	     16.54221763	    -19.82512386	      7.06448767	     81.71515623	     95.64516828	     25.35300827	    -11.15511019	     28.34098878	     82.21584166	     90.33673555
      5.63333330	    -17.54756492	      0.15467349	     -3.74968126	     -0.10863606	      0.69246128	     -0.05774279	     87.14512468	     -4.91272094	      1.15616128	     89.20636542	      1.55694479	     34.52052191	      2.35073341	     -7.49999987	     88.24511527	    -12.78914711	     -2.14424711	     93.85755929	      1.63812344	     31.38579691	     11.09080599	     -7.49999987	    -15.97306260	     -0.45887367	     10.57553346	     17.56382217	    -20.64722940	      6.90446182	     82.09633341	     89.44980927	     25.60470133	    -11.47369433	     27.82601310	     83.61171156	     85.22170836
      5.65000000	    -18.92993387	      0.14870737	     -3.87650426	     -0.10537666	      0.69267322	     -0.05886717	     88.05138574	     -4.73994396	      0.96341750	     88.50799677	      1.54475596	     34.42585241	      1.98596964	     -7.49999987	     89.31048963	    -12.77066115	     -2.09930942	     93.33655905	      1.62903027	     30.92494490	     10.66038638	     -7.49999987	    -14.89682695	     -0.36548972	     10.92903820	     18.91022300	    -20.92009938	      5.72112331	     83.38298210	     89.53434335	     26.19447902	    -11.29847201	     26.89071239	     85.06957717	     85.39326454
      5.66666670	    -19.90959401	      0.19312892	     -3.76433339	     -0.10464428	      0.71696628	     -0.05752966	     87.50207697	     -4.84856676	      0.76499260	     86.56214783	      1.51079449	     34.05356405	      1.99476050	     -7.49999987	     88.85216832	    -12.43427287	     -2.18539549	     91.42545686	      1.59567524	     30.72299313	     10.53813665	     -7.49999987	    -14.88720475	     -0.40821359	     10.91008301	     20.07854797	    -21.12789243	      4.96185242	     83.42970038	     88.96407334	     27.61747207	    -11.43946391	     25.84988383	     84.99353950	     84.91849214
      5.68333330	    -20.67002010	      0.07155330	     -3.95700542	     -0.10125111	      0.72504365	     -0.05751199	     86.51287424	     -4.61683073	      0.37984106	     84.40271614	      1.47310529	     33.72185479	      2.17337542	     -7.49999987	     88.11857846	    -12.52852395	     -2.19789356	     89.60775517	      1.56395036	     31.03157614	     11.23164370	     -7.49999987	    -15.08099547	     -0.21351164	     10.89512129	     20.45828839	    -20.70849360	      2.81952268	     84.82341309	     93.43038704	     28.10156915	    -10.98033225	     22.90752754	     87.50316841	     89.41281974
      5.70000000	    -21.76223802	      0.01697416	     -4.06986858	     -0.10044711	      0.73696399	     -0.05578712	     85.86948155	     -4.45029517	      0.00030012	     82.26428621	      1.43578265	     33.20129153	      2.22044343	     -7.49999987	     87.75014064	    -12.62530533	     -2.30826148	     87.75177756	      1.53155744	     31.17766357	     11.45618541	     -7.49999987	    -14.99864595	     -0.08892387	     10.99573969	     21.35749309	    -21.47515904	      3.11446373	     86.18718761	     92.65085081	     28.91643416	    -11.29839501	     22.05661985	     90.82957316	     88.99843183
      5.71666670	    -22.82839396	     -0.01609695	     -4.24615950	     -0.09663806	      0.74456661	     -0.05737203	     85.14036877	     -4.14231841	     -0.20280104	     79.93028585	      1.39504666	     32.56466037	      2.13068925	     -7.49999987	     87.28103110	    -12.70702367	     -2.43680745	     85.82069659	      1.49785372	     30.97526956	     11.27352090	     -7.49999987	    -14.39578905	      0.01949274	     10.84245000	     21.93265309	    -22.26211771	      3.62369231	     87.95109670	     92.00010450	     29.51258029	    -11.58887426	     21.22030685	     93.93053263	     88.67771333
      5.73333330	    -23.37110451	      0.05633629	     -4.53395910	     -0.07270368	      0.76660256	     -0.05602112	     83.07111739	     -3.70227220	     -0.12760641	     76.87084648	      1.34164937	     32.07846211	      2.17189032	     -7.49999987	     85.18219707	    -12.73200959	     -2.83663354	     83.12930279	      1.45088004	     30.74995601	     10.63729233	     -7.49999987	    -12.92328735	     -0.05097413	     11.05128741	     21.42747894	    -22.69903454	      3.63038435	     87.38224396	     90.85396577	     28.48817952	    -11.94914484	     20.77678703	     93.37165561	     87.74164815
